<mxfile host="app.diagrams.net" modified="2021-02-05T23:22:54.158Z" agent="5.0 (Macintosh; Intel Mac OS X 11_0_1) AppleWebKit/537.36 (KHTML, like Gecko) Chrome/88.0.4324.146 Safari/537.36" etag="hdHGQLv6Y5RWy9pGBfh5" version="14.2.5" type="github">
  <diagram id="HeS2M5Xynn5trE5IVIUv" name="Page-1">
    <mxGraphModel dx="438" dy="768" grid="1" gridSize="10" guides="1" tooltips="1" connect="1" arrows="1" fold="1" page="1" pageScale="1" pageWidth="827" pageHeight="1169" math="0" shadow="0">
      <root>
        <mxCell id="0" />
        <mxCell id="1" parent="0" />
        <mxCell id="Beat9v8LTeDqvJms-hGR-1" value="Imperfection" style="rounded=0;whiteSpace=wrap;html=1;" vertex="1" parent="1">
          <mxGeometry x="170" y="360" width="120" height="60" as="geometry" />
        </mxCell>
        <mxCell id="Beat9v8LTeDqvJms-hGR-6" style="edgeStyle=orthogonalEdgeStyle;rounded=0;orthogonalLoop=1;jettySize=auto;html=1;exitX=0.5;exitY=0;exitDx=0;exitDy=0;entryX=0.5;entryY=1;entryDx=0;entryDy=0;" edge="1" parent="1" source="Beat9v8LTeDqvJms-hGR-3" target="Beat9v8LTeDqvJms-hGR-1">
          <mxGeometry relative="1" as="geometry" />
        </mxCell>
        <mxCell id="Beat9v8LTeDqvJms-hGR-3" value="Inaccuracy" style="rounded=0;whiteSpace=wrap;html=1;" vertex="1" parent="1">
          <mxGeometry x="60" y="470" width="120" height="60" as="geometry" />
        </mxCell>
        <mxCell id="Beat9v8LTeDqvJms-hGR-7" style="edgeStyle=orthogonalEdgeStyle;rounded=0;orthogonalLoop=1;jettySize=auto;html=1;exitX=0.5;exitY=0;exitDx=0;exitDy=0;" edge="1" parent="1" source="Beat9v8LTeDqvJms-hGR-4">
          <mxGeometry relative="1" as="geometry">
            <mxPoint x="230" y="420" as="targetPoint" />
          </mxGeometry>
        </mxCell>
        <mxCell id="Beat9v8LTeDqvJms-hGR-4" value="Imprecision" style="rounded=0;whiteSpace=wrap;html=1;" vertex="1" parent="1">
          <mxGeometry x="294" y="470" width="120" height="60" as="geometry" />
        </mxCell>
        <mxCell id="Beat9v8LTeDqvJms-hGR-8" style="edgeStyle=orthogonalEdgeStyle;rounded=0;orthogonalLoop=1;jettySize=auto;html=1;exitX=0.5;exitY=0;exitDx=0;exitDy=0;entryX=0.5;entryY=1;entryDx=0;entryDy=0;" edge="1" parent="1" source="Beat9v8LTeDqvJms-hGR-5" target="Beat9v8LTeDqvJms-hGR-4">
          <mxGeometry relative="1" as="geometry" />
        </mxCell>
        <mxCell id="Beat9v8LTeDqvJms-hGR-5" value="Vagueness" style="rounded=0;whiteSpace=wrap;html=1;" vertex="1" parent="1">
          <mxGeometry x="294" y="570" width="120" height="60" as="geometry" />
        </mxCell>
      </root>
    </mxGraphModel>
  </diagram>
</mxfile>
